<svg width="22" height="22" viewBox="0 0 22 22" fill="none" xmlns="http://www.w3.org/2000/svg">
<path d="M21.5002 11C21.5002 16.799 16.7991 21.5 11.0001 21.5C5.20104 21.5 0.5 16.799 0.5 11C0.5 5.20101 5.20104 0.5 11.0001 0.5C16.7991 0.5 21.5002 5.20101 21.5002 11Z" fill="#DC4343" stroke="#CF090C"/>
<path fill-rule="evenodd" clip-rule="evenodd" d="M6.1771 15.2285C5.97223 15.4334 5.939 15.7323 6.10286 15.8961C6.26673 16.06 6.56565 16.0268 6.77052 15.8219L10.9994 11.593L15.2283 15.822C15.4332 16.0269 15.7321 16.0601 15.896 15.8962C16.0599 15.7324 16.0266 15.4334 15.8217 15.2286L11.5928 10.9996L15.8217 6.77076C16.0265 6.56589 16.0598 6.26697 15.8959 6.10311C15.732 5.93924 15.4331 5.97248 15.2282 6.17735L10.9994 10.4062L6.77061 6.17744C6.56574 5.97257 6.26682 5.93933 6.10295 6.1032C5.93909 6.26706 5.97233 6.56598 6.1772 6.77085L10.406 10.9996L6.1771 15.2285Z" fill="white"/>
<path fill-rule="evenodd" clip-rule="evenodd" d="M15.6162 6.3498C15.5797 6.35386 15.5259 6.37464 15.4758 6.42483L10.9994 10.9012L6.52315 6.42492C6.47296 6.37474 6.41923 6.35395 6.38275 6.3499C6.36531 6.34796 6.3556 6.34971 6.35101 6.35123C6.3495 6.35581 6.34774 6.36553 6.34968 6.38296C6.35374 6.41944 6.37452 6.47317 6.42471 6.52336L10.901 10.9996L6.42462 15.476C6.37443 15.5262 6.35365 15.5799 6.34959 15.6164C6.34765 15.6338 6.34941 15.6435 6.35092 15.6481C6.35551 15.6496 6.36522 15.6514 6.38266 15.6494C6.41913 15.6454 6.47287 15.6246 6.52306 15.5744L10.9994 11.0981L15.4759 15.5745C15.526 15.6247 15.5798 15.6455 15.6162 15.6495C15.6337 15.6515 15.6434 15.6497 15.648 15.6482C15.6495 15.6436 15.6513 15.6339 15.6493 15.6165C15.6453 15.58 15.6245 15.5263 15.5743 15.4761L11.0978 10.9996L15.5742 6.52327C15.6244 6.47308 15.6452 6.41935 15.6492 6.38287C15.6512 6.36544 15.6494 6.35572 15.6479 6.35114C15.6433 6.34962 15.6336 6.34787 15.6162 6.3498ZM15.6513 6.35275C15.6512 6.3528 15.6507 6.35258 15.6499 6.35191ZM15.6471 6.34914C15.6464 6.3483 15.6462 6.34781 15.6463 6.34778ZM15.6464 15.6516C15.6463 15.6515 15.6466 15.651 15.6472 15.6502ZM15.65 15.6474C15.6508 15.6467 15.6513 15.6465 15.6513 15.6466ZM6.34756 15.6465C6.3476 15.6464 6.34809 15.6467 6.34893 15.6473ZM6.35169 15.6501C6.35237 15.6509 6.35259 15.6514 6.35254 15.6515ZM6.35263 6.34787C6.35268 6.34791 6.35246 6.3484 6.35179 6.34923ZM6.34902 6.352C6.34818 6.35267 6.34769 6.3529 6.34766 6.35284ZM14.9808 5.92986C15.2679 5.64274 15.7941 5.50635 16.1434 5.85562C16.4927 6.20488 16.3563 6.73113 16.0692 7.01825L12.0878 10.9996L16.0693 14.9811C16.3564 15.2682 16.4928 15.7945 16.1435 16.1437C15.7942 16.493 15.268 16.3566 14.9809 16.0695L10.9994 12.088L7.01803 16.0694C6.73091 16.3565 6.20467 16.4929 5.8554 16.1436C5.50614 15.7944 5.64253 15.2681 5.92964 14.981L9.91102 10.9996L5.92974 7.01834C5.64262 6.73122 5.50623 6.20497 5.8555 5.85571C6.20476 5.50644 6.73101 5.64283 7.01812 5.92995L10.9994 9.91123L14.9808 5.92986Z" fill="white"/>
</svg>
