<svg width="25" height="25" viewBox="0 0 25 25" fill="none" xmlns="http://www.w3.org/2000/svg">
<rect width="25" height="25" rx="12.5" fill="#20436A"/>
<path fill-rule="evenodd" clip-rule="evenodd" d="M13.9444 7.44444C13.9444 6.6467 13.2977 6 12.5 6C11.7022 6 11.0555 6.6467 11.0555 7.44444V11.0555H7.44444C6.6467 11.0555 6 11.7022 6 12.4999C6 13.2976 6.6467 13.9443 7.44444 13.9443H11.0555V17.5556C11.0555 18.3533 11.7022 19 12.5 19C13.2977 19 13.9444 18.3533 13.9444 17.5556V13.9443H17.5556C18.3533 13.9443 19 13.2976 19 12.4999C19 11.7022 18.3533 11.0555 17.5556 11.0555H13.9444V7.44444Z" fill="white"/>
</svg>
