<svg width="26" height="23" viewBox="0 0 26 23" fill="none" xmlns="http://www.w3.org/2000/svg">
<path d="M25.6865 19.4185L15.1313 1.19197C14.2335 -0.397324 11.776 -0.397324 10.8724 1.19197L0.311467 19.4185C-0.586357 21.0078 0.558943 23 2.44092 23H23.4765C25.4448 22.9217 26.5901 21.0134 25.6865 19.4185Z" fill="#FFCC00"/>
<path d="M14.696 1.4379L14.6959 1.43792L14.6986 1.44254L25.2515 19.665C25.2518 19.6656 25.2522 19.6662 25.2525 19.6669C25.9429 20.8885 25.1061 22.4289 23.4661 22.5H2.44092C0.938807 22.5 0.0402542 20.919 0.745526 19.6667L11.305 1.44264L11.305 1.44265L11.3071 1.43909C12.0196 0.185889 13.9901 0.188446 14.696 1.4379Z" stroke="black" stroke-opacity="0.2"/>
<path d="M11.0083 9.73796L11.9169 15.792C12.0285 16.4745 12.5943 17.0445 13.3913 17.0445C14.0688 17.0445 14.7542 16.4745 14.8658 15.792L15.7743 9.73796C15.9975 8.25256 14.8658 7 13.3913 7C11.9169 7 10.8968 8.25256 11.0083 9.73796Z" fill="#3F4448"/>
<path d="M15.2799 9.66367L15.2799 9.66375L14.3718 15.7141C14.3378 15.9174 14.2125 16.1282 14.0183 16.2921C13.8228 16.457 13.593 16.5445 13.3913 16.5445C12.8618 16.5445 12.4875 16.1752 12.4108 15.7142L11.5057 9.68287C11.422 8.45441 12.2534 7.5 13.3913 7.5C14.5716 7.5 15.4559 8.49192 15.2799 9.66367Z" stroke="black" stroke-opacity="0.2"/>
<path d="M13.3914 21.0433C14.144 21.0433 14.7542 20.4286 14.7542 19.6703C14.7542 18.912 14.144 18.2973 13.3914 18.2973C12.6387 18.2973 12.0285 18.912 12.0285 19.6703C12.0285 20.4286 12.6387 21.0433 13.3914 21.0433Z" fill="#3F4448"/>
<path d="M14.2542 19.6703C14.2542 20.1559 13.8644 20.5433 13.3914 20.5433C12.9183 20.5433 12.5285 20.1559 12.5285 19.6703C12.5285 19.1846 12.9183 18.7973 13.3914 18.7973C13.8644 18.7973 14.2542 19.1846 14.2542 19.6703Z" stroke="black" stroke-opacity="0.2"/>
</svg>
