<svg width="36" height="36" viewBox="0 0 36 36" fill="none" xmlns="http://www.w3.org/2000/svg">
<g clip-path="url(#clip0_4350_21626)">
<path d="M34 18.0001C34 26.8368 26.8366 34 18 34C9.16339 34 2 26.8368 2 18.0001C2 9.16343 9.16339 2 18 2C26.8366 2 34 9.16343 34 18.0001" stroke="#59647D" stroke-width="2.5"/>
<path fill-rule="evenodd" clip-rule="evenodd" d="M22.2699 27.8609C22.3646 27.847 22.4567 27.8124 22.6035 27.7669C22.6415 27.7551 22.6767 27.7908 22.6651 27.8289C22.5364 28.2502 22.4334 28.6055 22.312 28.9559C22.2964 28.9998 22.2553 29.0382 22.2069 29.0711C22.1703 29.0949 22.131 29.115 22.0953 29.1296C21.0414 29.5629 19.9738 29.9541 18.8412 30.1314C17.3019 30.3728 15.9427 29.9779 14.7882 28.9322C14.4765 28.6506 14.3513 28.2832 14.2937 27.8938C14.2699 27.7311 14.258 27.5647 14.2498 27.4002C14.173 25.9303 14.4875 24.5117 14.8659 23.1077C15.0606 22.3855 15.2635 21.6653 15.4655 20.945C15.6529 20.2777 15.8403 19.6104 16.0213 18.9431C16.0707 18.7603 16.1045 18.5702 16.1282 18.3801C16.1438 18.2594 16.1547 18.1387 16.1639 18.0199C16.2224 17.2375 15.6712 16.6726 14.7754 16.6872C14.1895 16.6963 13.6045 16.8353 13.0195 16.9212C12.9674 16.9285 12.9153 16.9413 12.8504 16.9596L12.7466 16.9885C12.7103 16.9986 12.6763 16.9665 12.6843 16.9297L12.7407 16.6707C12.8065 16.3691 12.8677 16.0875 12.9408 15.8097C12.9582 15.7439 13.0569 15.6817 13.1319 15.6506C14.6904 15.0035 16.2973 14.53 18.0003 14.5976C19.2233 14.6451 20.2699 15.0894 20.801 16.3069C21.0725 16.9285 21.0972 17.5921 21.0378 18.2612C20.9153 19.6525 20.3942 20.945 20.0496 22.2813C19.7727 23.3563 19.4729 24.4258 19.2343 25.508C19.1648 25.8225 19.1429 26.1515 19.142 26.4788C19.141 26.6214 19.1447 26.764 19.1493 26.9066C19.1648 27.3837 19.3814 27.753 19.7471 27.9486C19.9509 28.0583 20.2005 28.115 20.4884 28.1058C21.0844 28.0894 21.6767 27.9505 22.2699 27.8609ZM19.6328 7.26669C21.1365 7.27401 22.3531 8.52264 22.3522 10.0565C22.3504 11.5482 21.0963 12.8024 19.6127 12.7969C18.1319 12.7914 16.8805 11.5208 16.8915 10.0345C16.9025 8.50436 18.1356 7.25938 19.6328 7.26669Z" fill="#59647D"/>
</g>
<defs>
<clipPath id="clip0_4350_21626">
<rect width="36" height="36" fill="white"/>
</clipPath>
</defs>
</svg>
